<svg width="208" height="40" viewBox="0 0 208 40" fill="none" xmlns="http://www.w3.org/2000/svg">
<mask id="path-1-inside-1_55_469" fill="white">
<path fill-rule="evenodd" clip-rule="evenodd" d="M21.5 39.134C20.5718 39.6699 19.4282 39.6699 18.5 39.134L4.1795 30.866C3.2513 30.3301 2.6795 29.3397 2.6795 28.2679V11.732C2.6795 10.6602 3.2513 9.66986 4.1795 9.13396L18.5 0.866016C19.4282 0.330116 20.5718 0.330116 21.5 0.866016L35.8205 9.13396C36.7487 9.66986 37.3205 10.6602 37.3205 11.732V28.2679C37.3205 29.3397 36.7487 30.3301 35.8205 30.866L21.5 39.134ZM20.5 7.49999C20.5 7.22385 20.2762 6.99999 20 6.99999C19.7239 6.99999 19.5 7.22385 19.5 7.49999V19.1577L11.0141 14.529C9.88123 13.9111 8.50001 14.731 8.50001 16.0214V23.9785C8.50001 25.2689 9.88122 26.0889 11.0141 25.471L19.5 20.8423V32.4444C19.5 32.7206 19.7239 32.9444 20 32.9444C20.2762 32.9444 20.5 32.7206 20.5 32.4444V20.8423L30.7606 26.4389C31.003 26.5712 31.3067 26.4818 31.439 26.2394C31.5712 25.997 31.4819 25.6933 31.2394 25.561L21.0442 20L31.2394 14.4389C31.4819 14.3067 31.5712 14.003 31.439 13.7606C31.3067 13.5181 31.003 13.4288 30.7606 13.561L20.5 19.1577V7.49999ZM10.5352 15.4069L18.9559 20L10.5352 24.5931C10.0687 24.8475 9.50001 24.5099 9.50001 23.9785V16.0214C9.50001 15.4901 10.0687 15.1525 10.5352 15.4069Z"/>
</mask>
<path fill-rule="evenodd" clip-rule="evenodd" d="M21.5 39.134C20.5718 39.6699 19.4282 39.6699 18.5 39.134L4.1795 30.866C3.2513 30.3301 2.6795 29.3397 2.6795 28.2679V11.732C2.6795 10.6602 3.2513 9.66986 4.1795 9.13396L18.5 0.866016C19.4282 0.330116 20.5718 0.330116 21.5 0.866016L35.8205 9.13396C36.7487 9.66986 37.3205 10.6602 37.3205 11.732V28.2679C37.3205 29.3397 36.7487 30.3301 35.8205 30.866L21.5 39.134ZM20.5 7.49999C20.5 7.22385 20.2762 6.99999 20 6.99999C19.7239 6.99999 19.5 7.22385 19.5 7.49999V19.1577L11.0141 14.529C9.88123 13.9111 8.50001 14.731 8.50001 16.0214V23.9785C8.50001 25.2689 9.88122 26.0889 11.0141 25.471L19.5 20.8423V32.4444C19.5 32.7206 19.7239 32.9444 20 32.9444C20.2762 32.9444 20.5 32.7206 20.5 32.4444V20.8423L30.7606 26.4389C31.003 26.5712 31.3067 26.4818 31.439 26.2394C31.5712 25.997 31.4819 25.6933 31.2394 25.561L21.0442 20L31.2394 14.4389C31.4819 14.3067 31.5712 14.003 31.439 13.7606C31.3067 13.5181 31.003 13.4288 30.7606 13.561L20.5 19.1577V7.49999ZM10.5352 15.4069L18.9559 20L10.5352 24.5931C10.0687 24.8475 9.50001 24.5099 9.50001 23.9785V16.0214C9.50001 15.4901 10.0687 15.1525 10.5352 15.4069Z" fill="white"/>
<path d="M18.5 39.134L18 40L18 40L18.5 39.134ZM21.5 39.134L22 40L22 40L21.5 39.134ZM4.1795 30.866L4.6795 30L4.6795 30L4.1795 30.866ZM4.1795 9.13396L4.6795 9.99999L4.6795 9.99999L4.1795 9.13396ZM18.5 0.866016L19 1.73204L19 1.73204L18.5 0.866016ZM21.5 0.866016L21 1.73204L21 1.73204L21.5 0.866016ZM35.8205 9.13396L35.3205 9.99999L35.3205 9.99999L35.8205 9.13396ZM35.8205 30.866L35.3205 30L35.3205 30L35.8205 30.866ZM19.5 19.1577H20.5V20.8423L19.0212 20.0356L19.5 19.1577ZM11.0141 14.529L11.4929 13.6511L11.4929 13.6511L11.0141 14.529ZM11.0141 25.471L11.4929 26.3489L11.4929 26.3489L11.0141 25.471ZM19.5 20.8423L19.0212 19.9644L20.5 19.1577V20.8423H19.5ZM20.5 20.8423H19.5V19.1577L20.9789 19.9644L20.5 20.8423ZM30.7606 26.4389L30.2817 27.3168L30.2817 27.3168L30.7606 26.4389ZM31.2394 25.561L30.7606 26.4389L30.7606 26.4389L31.2394 25.561ZM21.0442 20L20.5653 20.8779L18.9558 20L20.5653 19.1221L21.0442 20ZM31.2394 14.4389L30.7606 13.561L30.7606 13.561L31.2394 14.4389ZM30.7606 13.561L30.2817 12.6831L30.2817 12.6831L30.7606 13.561ZM20.5 19.1577L20.9789 20.0356L19.5 20.8423V19.1577H20.5ZM18.9559 20L19.4347 19.1221L21.0442 20L19.4347 20.8779L18.9559 20ZM10.5352 15.4069L10.0564 16.2848L10.0564 16.2848L10.5352 15.4069ZM10.5352 24.5931L10.0564 23.7152L10.0564 23.7152L10.5352 24.5931ZM19 38.2679C19.6188 38.6252 20.3812 38.6252 21 38.2679L22 40C20.7624 40.7145 19.2376 40.7145 18 40L19 38.2679ZM4.6795 30L19 38.2679L18 40L3.6795 31.732L4.6795 30ZM3.6795 28.2679C3.6795 28.9825 4.0607 29.6427 4.6795 30L3.6795 31.732C2.4419 31.0175 1.6795 29.697 1.6795 28.2679H3.6795ZM3.6795 11.732V28.2679H1.6795V11.732H3.6795ZM4.6795 9.99999C4.0607 10.3573 3.6795 11.0175 3.6795 11.732H1.6795C1.6795 10.303 2.4419 8.98247 3.6795 8.26794L4.6795 9.99999ZM19 1.73204L4.6795 9.99999L3.6795 8.26794L18 -9.0618e-06L19 1.73204ZM21 1.73204C20.3812 1.37477 19.6188 1.37477 19 1.73204L18 -8.39682e-06C19.2376 -0.714542 20.7624 -0.714542 22 -8.39682e-06L21 1.73204ZM35.3205 9.99999L21 1.73204L22 -9.05459e-06L36.3205 8.26794L35.3205 9.99999ZM36.3205 11.732C36.3205 11.0175 35.9393 10.3573 35.3205 9.99999L36.3205 8.26794C37.5581 8.98247 38.3205 10.303 38.3205 11.732H36.3205ZM36.3205 28.2679V11.732H38.3205V28.2679H36.3205ZM35.3205 30C35.9393 29.6427 36.3205 28.9825 36.3205 28.2679H38.3205C38.3205 29.697 37.5581 31.0175 36.3205 31.732L35.3205 30ZM21 38.2679L35.3205 30L36.3205 31.732L22 40L21 38.2679ZM20 5.99999C20.8284 5.99999 21.5 6.67156 21.5 7.49999H19.5C19.5 7.77613 19.7239 7.99999 20 7.99999V5.99999ZM18.5 7.49999C18.5 6.67156 19.1716 5.99999 20 5.99999V7.99999C20.2762 7.99999 20.5 7.77613 20.5 7.49999H18.5ZM18.5 19.1577V7.49999H20.5V19.1577H18.5ZM11.4929 13.6511L19.9789 18.2798L19.0212 20.0356L10.5352 15.4069L11.4929 13.6511ZM7.50001 16.0214C7.50001 13.972 9.6937 12.6697 11.4929 13.6511L10.5352 15.4069C10.0687 15.1525 9.50001 15.4901 9.50001 16.0214H7.50001ZM7.50001 23.9785V16.0214H9.50001V23.9785H7.50001ZM11.4929 26.3489C9.6937 27.3302 7.50001 26.028 7.50001 23.9785H9.50001C9.50001 24.5099 10.0687 24.8475 10.5352 24.5931L11.4929 26.3489ZM19.9789 21.7202L11.4929 26.3489L10.5352 24.5931L19.0212 19.9644L19.9789 21.7202ZM18.5 32.4444V20.8423H20.5V32.4444H18.5ZM20 33.9444C19.1716 33.9444 18.5 33.2729 18.5 32.4444H20.5C20.5 32.1683 20.2762 31.9444 20 31.9444V33.9444ZM21.5 32.4444C21.5 33.2729 20.8284 33.9444 20 33.9444V31.9444C19.7239 31.9444 19.5 32.1683 19.5 32.4444H21.5ZM21.5 20.8423V32.4444H19.5V20.8423H21.5ZM30.2817 27.3168L20.0212 21.7202L20.9789 19.9644L31.2394 25.561L30.2817 27.3168ZM32.3169 26.7183C31.9202 27.4455 31.009 27.7135 30.2817 27.3168L31.2394 25.561C30.997 25.4288 30.6933 25.5181 30.5611 25.7606L32.3169 26.7183ZM31.7183 24.6831C32.4456 25.0798 32.7135 25.991 32.3169 26.7183L30.5611 25.7606C30.4288 26.003 30.5182 26.3067 30.7606 26.4389L31.7183 24.6831ZM21.523 19.1221L31.7183 24.6831L30.7606 26.4389L20.5653 20.8779L21.523 19.1221ZM31.7183 15.3168L21.523 20.8779L20.5653 19.1221L30.7606 13.561L31.7183 15.3168ZM32.3169 13.2817C32.7135 14.009 32.4456 14.9201 31.7183 15.3168L30.7606 13.561C30.5182 13.6933 30.4288 13.997 30.5611 14.2394L32.3169 13.2817ZM30.2817 12.6831C31.009 12.2865 31.9202 12.5544 32.3169 13.2817L30.5611 14.2394C30.6933 14.4818 30.997 14.5712 31.2394 14.4389L30.2817 12.6831ZM20.0212 18.2798L30.2817 12.6831L31.2394 14.4389L20.9789 20.0356L20.0212 18.2798ZM21.5 7.49999V19.1577H19.5V7.49999H21.5ZM18.477 20.8779L10.0564 16.2848L11.0141 14.529L19.4347 19.1221L18.477 20.8779ZM10.0564 23.7152L18.477 19.1221L19.4347 20.8779L11.0141 25.471L10.0564 23.7152ZM10.5 23.9785C10.5 23.7508 10.2563 23.6061 10.0564 23.7152L11.0141 25.471C9.88122 26.0889 8.50001 25.2689 8.50001 23.9785H10.5ZM10.5 16.0214V23.9785H8.50001V16.0214H10.5ZM10.0564 16.2848C10.2563 16.3939 10.5 16.2492 10.5 16.0214H8.50001C8.50001 14.731 9.88123 13.9111 11.0141 14.529L10.0564 16.2848Z" fill="white" mask="url(#path-1-inside-1_55_469)"/>
<path d="M54.114 27.117C55.126 27.117 56.0647 26.9337 56.93 26.567C57.7953 26.1857 58.5433 25.643 59.174 24.939C59.7753 24.2643 60.2373 23.5017 60.56 22.651C60.8827 21.8003 61.044 20.8983 61.044 19.945C61.044 18.9917 60.8827 18.0897 60.56 17.239C60.2373 16.3883 59.7753 15.633 59.174 14.973C58.5433 14.2837 57.7953 13.7557 56.93 13.389C56.0647 13.0077 55.126 12.817 54.114 12.817H50V27.117H54.114ZM50.99 13.829H54.114C55.874 13.829 57.3187 14.4377 58.448 15.655C58.9613 16.2123 59.35 16.865 59.614 17.613C59.8927 18.3463 60.032 19.1237 60.032 19.945C60.032 20.781 59.8927 21.573 59.614 22.321C59.35 23.0543 58.9613 23.6997 58.448 24.257C57.3333 25.5037 55.8887 26.127 54.114 26.127H50.99V13.829Z" fill="#F2F2F2"/>
<path d="M70.9239 27.271C72.2292 27.271 73.4392 26.9483 74.5539 26.303C75.6686 25.643 76.5486 24.7557 77.1939 23.641C77.8392 22.5117 78.1619 21.287 78.1619 19.967C78.1619 18.647 77.8392 17.4297 77.1939 16.315C76.5486 15.1857 75.6686 14.2983 74.5539 13.653C73.4392 12.993 72.2292 12.663 70.9239 12.663C69.6186 12.663 68.4086 12.993 67.2939 13.653C66.1792 14.2983 65.2992 15.1857 64.6539 16.315C64.0086 17.4297 63.6859 18.647 63.6859 19.967C63.6859 21.287 64.0086 22.5117 64.6539 23.641C65.2992 24.7557 66.1792 25.643 67.2939 26.303C68.4086 26.9483 69.6186 27.271 70.9239 27.271ZM70.9239 13.675C72.0532 13.675 73.0946 13.961 74.0479 14.533C75.0012 15.0903 75.7566 15.853 76.3139 16.821C76.8712 17.7743 77.1499 18.823 77.1499 19.967C77.1499 21.111 76.8712 22.167 76.3139 23.135C75.7566 24.0883 75.0012 24.851 74.0479 25.423C73.0946 25.9803 72.0532 26.259 70.9239 26.259C69.7946 26.259 68.7532 25.9803 67.7999 25.423C66.8466 24.851 66.0839 24.0883 65.5119 23.135C64.9546 22.167 64.6759 21.111 64.6759 19.967C64.6759 18.823 64.9546 17.7743 65.5119 16.821C66.0839 15.853 66.8466 15.0903 67.7999 14.533C68.7532 13.961 69.7946 13.675 70.9239 13.675Z" fill="#F2F2F2"/>
<path d="M92.2577 27.359V12.817H91.2677V24.477L81.3677 12.641V27.117H82.3577V15.501L92.2577 27.359Z" fill="#F2F2F2"/>
<path d="M114.627 27.117H113.307L108.181 21.023L103.561 27.359V12.817H104.551V24.279L112.889 12.817H114.143L108.775 20.165L114.627 27.117Z" fill="#F2F2F2"/>
<path d="M126.868 27.117V26.127H118.838V12.817H117.848V27.117H126.868Z" fill="#F2F2F2"/>
<path d="M132.523 23.487L130.829 27.117H129.729L136.461 12.641L142.819 27.117H141.741L140.135 23.487H132.523ZM136.417 15.083L132.985 22.497H139.695L136.417 15.083Z" fill="#F2F2F2"/>
<path d="M156.84 27.359V12.817H155.85V24.477L145.95 12.641V27.117H146.94V15.501L156.84 27.359Z" fill="#F2F2F2"/>
<path d="M162.73 23.487L161.036 27.117H159.936L166.668 12.641L173.026 27.117H171.948L170.342 23.487H162.73ZM166.624 15.083L163.192 22.497H169.902L166.624 15.083Z" fill="#F2F2F2"/>
<path d="M187.201 27.117H185.881L180.755 21.023L176.135 27.359V12.817H177.125V24.279L185.463 12.817H186.717L181.349 20.165L187.201 27.117Z" fill="#F2F2F2"/>
<path d="M191.676 27.117V12.817H190.686V27.117H191.676Z" fill="#F2F2F2"/>
<path d="M207.07 27.359V12.817H206.08V24.477L196.18 12.641V27.117H197.17V15.501L207.07 27.359Z" fill="#F2F2F2"/>
</svg>
